<svg width="2450" height="535" viewBox="0 0 2450 535" fill="none" xmlns="http://www.w3.org/2000/svg">
<path d="M34.855 4.8619C25.1281 5.94234 16.752 10.264 9.72699 17.827C3.24233 25.39 0 33.2231 0 41.3262C0 49.4294 2.43174 56.1821 7.29524 61.5842C12.6991 66.4461 19.454 68.8771 27.5598 68.8771L398.131 69.6874L448.387 68.8771C445.145 92.1062 443.524 160.713 443.524 274.698C443.524 388.143 445.145 465.663 448.387 507.259C450.008 525.086 458.655 534 474.326 534C484.593 534 492.699 532.92 498.643 530.759C507.29 528.598 511.613 518.874 511.613 501.587L508.37 217.165V189.615C508.37 157.202 509.721 116.416 512.423 67.2564C552.952 65.0956 595.913 64.0152 641.306 64.0152C663.462 64.0152 674.54 50.5099 674.54 23.4992C674.54 12.695 666.704 4.86191 651.033 0L34.855 4.8619Z" fill="#e4e4e4"/>
<path d="M729.457 160.443C678.12 160.443 637.861 174.759 608.68 203.39C580.039 232.021 565.719 273.888 565.719 328.989C565.719 384.631 580.039 432.17 608.68 471.605C637.32 510.501 674.337 529.948 719.73 529.948C761.88 529.948 796.194 510.501 822.674 471.605C849.693 432.17 863.203 385.982 863.203 333.041C863.203 280.1 851.044 238.234 826.727 207.442C802.409 176.109 769.986 160.443 729.457 160.443ZM725.404 470.795C693.521 470.795 668.123 455.669 649.209 425.417C630.836 395.706 621.649 363.023 621.649 327.369C621.649 291.715 630.295 264.434 647.588 245.527C664.88 226.079 689.198 216.355 720.54 216.355C751.342 216.355 772.958 226.349 785.387 246.337C798.356 265.785 804.841 297.657 804.841 341.954C804.841 385.712 794.033 420.825 772.418 447.296C759.448 462.962 743.777 470.795 725.404 470.795Z" fill="#e4e4e4"/>
<path d="M967.116 499.967C965.494 451.347 964.414 419.205 963.873 403.539C986.029 418.665 1011.16 438.382 1039.26 462.692C1066.82 487.001 1084.11 503.748 1091.13 512.932C1100.86 524.816 1109.78 530.759 1117.88 530.759C1120.05 530.759 1123.56 529.948 1128.42 528.328C1141.39 524.006 1147.88 515.903 1147.88 504.018C1147.88 487.272 1134.64 465.933 1108.16 440.003C1080.6 414.073 1050.34 390.574 1017.37 369.505C1021.69 368.965 1034.93 362.483 1057.09 350.058C1079.25 337.633 1095.73 327.639 1106.54 320.076C1118.96 310.892 1130.04 299.008 1139.77 284.422C1150.04 269.836 1155.17 256.871 1155.17 245.527C1155.17 220.677 1141.93 199.879 1115.45 183.132C1088.97 165.845 1058.44 157.202 1023.86 157.202C988.731 157.202 960.901 162.064 940.366 171.788C919.832 181.511 909.564 195.017 909.564 212.303C909.564 391.654 910.645 492.404 912.807 514.552C912.807 525.357 918.751 530.759 930.639 530.759C939.826 530.759 948.202 527.788 955.767 521.845C963.333 515.903 967.116 508.88 967.116 500.777V499.967ZM963.873 331.42C963.873 274.158 964.143 236.883 964.684 219.596C984.138 214.734 1004.13 212.303 1024.67 212.303C1044.12 212.303 1061.41 216.355 1076.54 224.458C1092.22 232.021 1100.05 242.555 1100.05 256.061C1098.43 271.187 1079.79 287.663 1044.12 305.49C1007.91 322.777 981.166 331.42 963.873 331.42Z" fill="#e4e4e4"/>
<path d="M1362.19 160.443C1310.85 160.443 1270.59 174.759 1241.41 203.39C1212.77 232.021 1198.45 273.888 1198.45 328.989C1198.45 384.631 1212.77 432.17 1241.41 471.605C1270.05 510.501 1307.07 529.948 1352.46 529.948C1394.61 529.948 1428.92 510.501 1455.4 471.605C1482.42 432.17 1495.93 385.982 1495.93 333.041C1495.93 280.1 1483.77 238.234 1459.46 207.442C1435.14 176.109 1402.71 160.443 1362.19 160.443ZM1358.13 470.795C1326.25 470.795 1300.85 455.669 1281.94 425.417C1263.56 395.706 1254.38 363.023 1254.38 327.369C1254.38 291.715 1263.02 264.434 1280.32 245.527C1297.61 226.079 1321.93 216.355 1353.27 216.355C1384.07 216.355 1405.69 226.349 1418.12 246.337C1431.09 265.785 1437.57 297.657 1437.57 341.954C1437.57 385.712 1426.76 420.825 1405.15 447.296C1392.18 462.962 1376.51 470.795 1358.13 470.795Z" fill="#e4e4e4"/>
<path d="M1730.35 320.076C1747.1 303.329 1755.48 280.37 1755.48 251.199C1755.48 222.568 1743.59 199.608 1719.81 182.322C1696.57 164.495 1666.58 155.581 1629.84 155.581C1593.09 155.581 1568.77 165.575 1556.88 185.563C1545 205.551 1539.05 239.854 1539.05 288.473C1539.05 365.184 1539.86 434.331 1541.48 495.915L1542.04 520.015C1542.18 525.988 1547.08 530.761 1553.05 530.737C1674.43 530.23 1743.25 521.054 1759.53 503.208C1783.85 479.439 1796.01 450.267 1796.01 415.693C1796.01 394.625 1789.79 374.637 1777.36 355.73C1764.93 336.282 1749.26 324.398 1730.35 320.076ZM1595.79 247.147C1595.79 232.561 1598.76 222.297 1604.71 216.355C1611.19 209.873 1623.08 206.631 1640.37 206.631C1658.75 206.631 1674.15 210.953 1686.58 219.596C1699.55 227.7 1706.03 238.234 1706.03 251.199C1706.03 273.888 1694.95 290.634 1672.8 301.439C1650.64 311.162 1624.97 316.024 1595.79 316.024V247.147ZM1678.47 358.971C1723.32 358.971 1745.75 377.879 1745.75 415.693C1745.75 448.106 1721.16 468.364 1671.99 476.467C1646.59 480.249 1628.22 482.14 1616.87 482.14C1605.52 481.599 1599.3 481.329 1598.22 481.329C1595.52 454.859 1594.17 428.929 1594.17 403.539L1594.98 365.454C1627.94 361.132 1655.77 358.971 1678.47 358.971Z" fill="#e4e4e4"/>
<path d="M1891.97 508.88C1894.67 484.03 1903.86 442.974 1919.53 385.712C1948.71 393.275 1986.81 397.056 2033.82 397.056L2062.19 508.07C2065.98 523.196 2076.78 530.759 2094.62 530.759C2101.64 530.759 2107.59 528.598 2112.45 524.276C2117.31 519.954 2119.74 514.552 2119.74 508.07C2105.15 444.865 2092.73 395.165 2082.46 358.971C2071.65 320.616 2057.33 281.991 2039.5 243.096C2021.66 204.74 2010.05 181.241 2004.64 172.598C1998.16 162.334 1990.59 157.202 1981.95 157.202C1965.19 157.202 1948.44 172.058 1931.69 201.769C1913.32 233.642 1897.65 270.917 1884.68 313.593C1853.33 410.832 1837.66 475.657 1837.66 508.07C1837.66 522.115 1846.04 529.138 1862.79 529.138C1880.08 529.138 1889.81 522.385 1891.97 508.88ZM1979.51 231.751C1995.19 264.704 2008.69 301.709 2020.04 342.765C1987.62 342.765 1959.52 339.524 1935.74 333.041C1947.09 295.226 1961.68 261.463 1979.51 231.751Z" fill="#e4e4e4"/>
<path d="M2224.66 277.939C2269.51 328.719 2312.47 393.005 2353.54 470.795C2355.16 473.496 2358.4 479.439 2363.27 488.622C2368.13 497.806 2375.16 508.07 2384.34 519.414C2391.91 528.598 2402.45 533.19 2415.96 533.19C2438.65 533.19 2450 519.144 2450 491.053L2445.95 189.615C2445.95 180.431 2442.98 172.868 2437.03 166.926C2431.09 160.443 2424.6 157.202 2417.58 157.202C2399.74 157.202 2388.67 167.466 2384.34 187.994V194.476L2388.4 260.923C2391.64 311.162 2393.53 369.505 2394.07 435.951C2367.05 379.229 2328.14 319.536 2277.35 256.871C2256.27 229.86 2240.06 211.223 2228.71 200.959C2217.36 190.155 2207.64 184.753 2199.53 184.753C2184.4 184.753 2174.67 192.046 2170.35 206.631C2167.65 217.976 2166.3 233.642 2166.3 253.63V280.37L2159.81 507.259C2160.35 514.282 2163.05 520.225 2167.92 525.086C2173.32 529.408 2179.27 531.569 2185.75 531.569C2202.5 531.569 2211.96 524.276 2214.12 509.69C2214.66 507.53 2214.93 501.857 2214.93 492.674L2224.66 277.939Z" fill="#e4e4e4"/>
<path fill-rule="evenodd" clip-rule="evenodd" d="M64 143L11.5761 185.517C4.5678 191.201 0.490269 199.693 0.473122 208.716C0.300033 299.799 0 449.892 0 459C0 468.6 2.5 484 6.5 488C18.6181 500.118 43.3643 522.376 49.5 528C55.5 533.5 58.5 534.5 64 534.5H297.5C309.5 534.5 310.5 533.857 313.5 531C327.5 517.667 356.9 489.8 362.5 485C368.1 480.2 367 467.5 367 464V205.5C367 197 363.529 191 359 187.5C340.667 173.333 306.5 145.8 302.5 143C298.5 140.2 295.333 140.167 293.5 140H74.5C68.9 140 65.1667 142 64 143ZM28.381 191.197C21.178 197.085 17 205.896 17 215.199V325.764C17 334.428 21.0111 342.604 27.863 347.907L66.9323 378.143C71.8381 381.94 77.8659 384 84.0693 384H283.931C290.134 384 296.162 381.94 301.068 378.143L340.137 347.907C346.989 342.604 351 334.428 351 325.764V217.096C351 206.592 346.283 196.644 338.15 189.997L302.614 160.95C296.72 156.132 289.341 153.5 281.729 153.5H86.271C78.6585 153.5 71.2802 156.132 65.3862 160.95L28.381 191.197ZM14.5 459L16.9031 363.836C16.944 362.219 18.7837 361.312 20.0897 362.266C27.2884 367.522 39.1139 376.024 46 380.5C54 385.7 55 397.667 54.5 403V506.898C54.5 508.646 52.4183 509.554 51.144 508.356C42.8183 500.531 29.4145 487.762 23.5 481.5C16.7 474.3 14.6667 463.5 14.5 459ZM91.5 519C85.8333 519.5 74.5 517.6 74.5 506V415.5C74.5 407 75.5 399.6 91.5 400C107.5 400.4 224.5 400.167 281 400C290.5 400 293.5 404.7 293.5 415.5V506C293.5 514 289.4 519 281 519H91.5ZM313.5 406V506.243C313.5 508.014 315.634 508.912 316.901 507.673C325.716 499.058 339.898 485.252 345.5 480C351.9 474 353.5 463.5 353.5 459L351.095 360.4C351.055 358.771 349.195 357.87 347.9 358.86C340.841 364.261 329.203 373.326 322 379.5C313.6 386.7 312.833 400.167 313.5 406Z" fill="#e4e4e4"/>
<path d="M299.5 237C312.5 239 321.5 229 323 214.5C324.5 200 314.232 189.03 301.5 179C285.645 166.509 260.969 163.803 251 168C241.5 172 234.586 182.616 237.5 193.5C240.343 204.12 255 208.5 261 209C267 209.5 272.5 211 275 213.5C275.544 214.044 276.088 214.517 276.663 215.017C278.73 216.814 281.197 218.959 285.5 226C291 235 296.5 236.397 299.5 237Z" fill="#e4e4e4"/>
<path fill-rule="evenodd" clip-rule="evenodd" d="M86 335C60 315 52.4946 294.245 48.5001 277C28 188.5 108.813 170.323 138 179C159.5 185.392 182.5 197 197.5 231.5C214.833 221 263.202 212.99 282 262C296 298.5 272.167 327.333 251 334C256.833 340.333 267.993 358.066 266.5 373L266.481 373.195C265.997 378.052 265.804 380 251 380C244.486 380 197.75 379.558 155.02 379.154L154.993 379.154L154.98 379.154L154.955 379.153C118.993 378.813 85.8836 378.5 82 378.5C73.5 378.5 71.2 376.1 72 370.5C72.428 367.504 74.8561 359.153 78.1245 352C79.4368 349.128 80.8041 346.207 82.0864 343.468L82.0884 343.464C83.5808 340.276 84.9582 337.334 86 335ZM211.927 268.84C210.182 264.186 204.994 261.828 200.34 263.573C195.686 265.318 193.328 270.506 195.073 275.16C197.674 282.096 198.762 287.138 198.77 292.269C198.778 297.513 197.66 303.493 194.908 312.322C193.429 317.067 196.076 322.113 200.822 323.592C205.567 325.071 210.613 322.424 212.092 317.678C215.074 308.113 216.782 300.129 216.77 292.241C216.758 284.238 214.979 276.977 211.927 268.84ZM160.414 268.807C158.651 264.159 153.454 261.822 148.807 263.586C144.159 265.349 141.822 270.546 143.586 275.193C146.349 282.476 147.539 287.524 147.583 292.541C147.628 297.607 146.509 303.375 143.498 312.048C141.868 316.744 144.353 321.872 149.048 323.502C153.744 325.132 158.872 322.647 160.502 317.952C163.831 308.363 165.653 300.378 165.582 292.383C165.512 284.339 163.531 277.018 160.414 268.807Z" fill="#e4e4e4"/>
<path d="M97 404C76.5 404 78.5518 415.5 80 422C84.5 442.197 96 457.947 114.5 467C133 476.053 157.5 477 172 470.5C184 465.121 191 455 193 445C195 435 202.833 428.333 207 428C208.333 427.667 214.5 427.5 226.5 427.5C239.04 427.5 253.5 418 259 411C263.4 405.4 258 404 252.5 404H97Z" fill="#e4e4e4"/>
<path d="M240 450C248.312 450.779 261 446 261 446C261 446 281.5 439.2 285.5 450C287.722 456 288.098 472.191 271.5 486.5C257 499 235 509.5 217.5 508.5C200 507.5 194.789 497 194 492C192.5 482.5 192.754 475.291 198.5 467C203.333 460.333 218.4 447.6 240 450Z" fill="#e4e4e4"/>
</svg>
